<svg width="455" height="400" viewBox="0 0 455 400" fill="none" xmlns="http://www.w3.org/2000/svg">
<path d="M1.66777 0L217.329 0.306799C216.728 32.0484 217.319 65.6652 217.349 97.5419C224.201 96.5605 230.517 95.6124 237.429 95.1378C236.94 63.7709 237.218 31.7038 237.215 0.280725L454.275 0.298357L454.227 399.239L329.932 399.229L237.219 399.286L237.285 176.957C230.626 177.287 223.97 177.652 217.314 178.052L217.362 399.237L0.0332149 399.255C0.490991 365.644 0.0988934 331.226 0.108576 297.544L0.0738571 85.7623L0.0560344 26.0282C0.0537526 22.456 -0.224565 2.90743 0.480754 0.467507L1.66777 0Z" fill="#434343"/>
<path d="M250.083 68.4473C258.79 74.513 266.003 80.4875 274.323 86.8529L314.089 117.137C321.885 123.08 329.467 129.869 337.776 134.975C333.868 138.077 329.972 141.367 326.167 144.603C301.592 165.504 273.896 184.287 249.597 205.362C250.242 192.153 249.99 178.13 249.967 164.851C208.54 164.327 181.699 168.757 147.376 194.624C128.836 208.857 111.553 229.66 101.297 250.715C98.3876 256.689 95.6914 264.945 93.4879 271.334C92.0997 184.691 152.259 112.635 240.549 107.602C243.707 107.422 246.863 107.3 250.024 107.186L250.083 68.4473Z" fill="white"/>
<path d="M12.6147 132.882C16.9773 137.235 21.967 142.738 26.2685 147.203C34.4632 155.71 53.0776 172.532 58.7469 181.527C55.0955 190.359 49.7 200.445 45.396 209.127L26.2142 248.407C23.7166 253.505 15.2592 272.514 12.6974 275.801L12.6147 132.882Z" fill="#4B9DD2"/>
<path d="M441.26 151.264C442.402 225.265 440.228 300.595 441.332 374.58C441.734 375.418 441.664 376.143 441.693 377.079L440.772 377.203C438.29 374.917 436.261 372.147 433.696 369.631C411.995 348.343 391.151 325.736 369.944 303.824C379.66 281.139 391.518 258.875 401.47 236.275C404.338 229.763 407.59 223.298 410.727 216.904C415.531 206.514 420.401 195.943 425.249 185.591C430.737 173.872 436.454 163.446 441.26 151.264Z" fill="#CC292A"/>
<path d="M441.26 151.264C442.401 225.265 440.228 300.595 441.332 374.58C439.467 372.217 438.612 363.904 437.925 360.447C435.559 348.621 433.286 336.776 431.108 324.914L410.727 216.904C415.531 206.514 420.401 195.943 425.249 185.591C430.737 173.872 436.454 163.446 441.26 151.264Z" fill="#E25951"/>
<path d="M249.31 14.9537L249.816 13.264C253.033 12.6069 265.592 12.9897 269.856 12.8923C287.787 12.4818 306.825 13.3436 324.654 12.7197C330.381 28.7792 337.107 44.9428 343.09 60.9739C348.29 78.2786 357.009 95.2843 362.404 112.656C356.321 116.783 350.338 121.056 344.462 125.472C335.868 117.834 327.335 112.091 318.815 104.81C311.489 99.3078 303.968 94.068 296.864 88.2907C281.763 77.1203 264.166 63.4705 249.471 51.8105C249.495 39.6168 249.662 27.1197 249.31 14.9537Z" fill="#F5D835"/>
<path d="M369.893 131.921C374.998 141.699 379.755 156.824 383.799 167.246C389.293 181.407 395.125 195.455 400.593 209.603C389.869 236.633 371.654 267.836 360.68 295.053C355.266 288.804 316.724 249.896 316.289 246.802C334.569 209.301 351.913 169.803 369.893 131.921Z" fill="#F5D835"/>
<path d="M202.578 19.1049L203.863 18.2881L204.74 18.9082C205.444 23.8416 205.207 39.3623 205.231 44.8677C205.321 63.3171 205.26 81.7671 205.049 100.216C190.631 105.017 179.247 109.44 165.69 116.522C161.188 118.874 151.414 125.905 148.491 127.217C146.568 128.957 143.62 131.101 141.499 132.74C131.837 122.63 122.473 112.926 112.438 103.124C107.529 98.3295 102.592 93.9245 97.896 88.898L202.578 19.1049Z" fill="#4B9DD2"/>
<path d="M12.6147 132.882C16.9772 137.235 21.9669 142.738 26.2684 147.203C34.4631 155.71 53.0775 172.532 58.7469 181.527C60.4138 188.803 61.2975 196.266 62.8979 203.571C69.1981 232.327 76.4807 260.845 82.1056 289.744C83.0195 294.439 84.2992 299.605 85.4555 304.257C79.5173 309.237 70.6473 319.266 64.8121 325.234L26.7611 363.746C22.0915 368.526 17.3281 374.311 12.7275 378.86L12.6042 309.917C12.6128 300.063 12.0837 284.963 12.6973 275.801L12.6147 132.882Z" fill="#2E76AF"/>
<path d="M202.578 19.1049L203.863 18.2881L204.74 18.9082C205.444 23.8416 205.207 39.3623 205.231 44.8677C205.321 63.3171 205.26 81.7671 205.049 100.216C190.631 105.017 179.247 109.44 165.69 116.522C161.188 118.874 151.414 125.905 148.491 127.217C149.654 123.29 157.218 109.477 159.661 104.707C165.592 93.1305 172.343 80.0287 178.146 68.5204C183.182 58.5341 200.28 28.5049 202.578 19.1049Z" fill="#2E76AF"/>
<path d="M361.895 312.975C365.885 317.642 371.611 322.718 375.971 327.471C394.353 347.51 414.452 367.008 433.076 386.683C400.836 387.412 366.375 386.797 333.963 386.79L261.982 386.794C269.96 379.311 287.8 367.328 297.182 360.255C318.355 344.294 340.644 328.903 361.895 312.975Z" fill="#2E76AF"/>
<path d="M25.2557 12.933C79.4913 13.0218 135.993 12.0275 189.948 13.1697C177.061 22.1327 161.84 32.0001 148.641 40.5396C129.675 53.2814 108.021 67.7171 88.772 79.6754C80.1709 72.4156 68.313 59.3699 60.0461 51.175C47.6943 38.9301 35.1962 26.5187 22.9023 14.2115L23.0756 13.301L25.2557 12.933Z" fill="#4B9DD2"/>
<path d="M136.029 222.581C148.916 203.576 182.532 185.464 205.165 180.617C205.172 183.932 205.143 187.246 205.077 190.56C205.029 230.811 204.56 272.24 205.123 312.425L161.997 268.187C150.352 256.392 138.561 244.986 127.204 232.904C130.042 229.376 132.985 225.933 136.029 222.581Z" fill="#5DBFD7"/>
<path d="M136.029 222.581C148.916 203.576 182.533 185.464 205.165 180.617C205.172 183.932 205.143 187.246 205.077 190.56C201.509 191.413 185.985 199.37 181.855 201.306C166.67 208.422 151.524 216.133 136.029 222.581Z" fill="#4B9DD2"/>
<path d="M12.6967 21.7461C14.9674 23.3784 19.2664 28.1164 21.4273 30.2468C40.9131 49.4581 61.107 68.8216 80.1099 88.449C79.2022 95.9462 76.3092 105.866 74.3284 113.386L64.7424 149.63C63.3567 154.909 62.0246 160.202 60.7468 165.508C45.7105 148.768 28.2597 132.253 12.7183 115.577C12.0584 85.9019 12.2755 51.4677 12.6967 21.7461Z" fill="#5DBFD7"/>
<path d="M141.047 264.45C149.181 272.365 156.328 280.426 164.803 288.155C176.555 300.747 195.02 317.569 205.026 329.49C205.132 346.473 205.129 363.456 205.017 380.439C197.327 375.873 188.124 368.468 180.719 362.953C171.918 356.399 159.376 348.289 151.254 341.244C136.222 332.131 116.809 315.85 101.299 305.434C115.203 292.465 127.904 278.056 141.047 264.45Z" fill="#CC292A"/>
<path d="M141.047 264.45C149.181 272.365 156.328 280.426 164.803 288.155C160.53 304.09 155.784 319.764 152.504 335.941C152.157 337.657 151.735 339.569 151.254 341.244C136.222 332.131 116.809 315.85 101.299 305.434C115.203 292.465 127.904 278.056 141.047 264.45Z" fill="#E25951"/>
<path d="M337.218 12.7809L370.259 13.0053C391.311 12.517 413.72 12.9313 434.859 13.1816C423.341 29.2404 412.266 45.5205 400.633 61.5387C391.194 74.5357 382.034 89.1446 371.974 101.562C366.427 90.2055 363.217 80.6846 359.001 68.7978C356.309 61.2101 352.613 53.647 350.281 45.8528C345.908 34.6897 342.571 23.4625 337.218 12.7809Z" fill="#CC292A"/>
<path d="M337.218 12.7812L370.259 13.0056C363.671 22.0556 356.399 35.8619 350.281 45.8532C345.908 34.6901 342.571 23.4629 337.218 12.7812Z" fill="#E25951"/>
<path d="M310.232 259.532C315.596 262.569 330.827 282.408 337.16 287.518C340.789 290.446 348.502 300.09 352.899 304.316C347.75 307.813 341.997 312.568 336.729 316.356C318.446 329.451 300.347 342.801 282.437 356.402C274.196 361.618 265.034 369.123 256.992 375.096C274.761 337.785 293.916 297.419 310.232 259.532Z" fill="#4B9DD2"/>
<path d="M249.284 228.478C261.404 233.682 273.13 239.769 285.265 244.946C290.577 247.212 295.851 249.553 300.785 252.576C296.231 261.254 292.082 269.575 288.173 278.572C281.361 294.252 273.601 309.518 266.738 325.19C261.838 336.364 254.947 350.618 249.488 361.584C248.902 348.145 249.408 331.202 249.419 317.462L249.284 228.478Z" fill="#5DBFD7"/>
<path d="M306.923 175.799C321.165 164.736 334.783 153.211 348.684 141.725C350.296 140.393 351.58 139.297 353.355 138.166C346.42 154.527 338.943 169.429 331.437 185.32L307.156 237.065C306.64 238.593 306.524 239.294 305.266 240.368C303.118 239.664 301.269 238.884 299.23 237.93C284.172 230.891 268.793 224.745 253.939 217.261C260.395 211.656 268.233 206.679 274.801 201.024C285.056 192.194 296.657 184.549 306.923 175.799Z" fill="#2E76AF"/>
<path d="M306.922 175.799C321.165 164.736 334.783 153.211 348.683 141.725C350.296 140.393 351.58 139.297 353.354 138.166C346.42 154.527 338.943 169.429 331.437 185.32L307.156 237.065C305.732 234.829 307.041 183.536 306.922 175.799Z" fill="#4B9DD2"/>
<path d="M90.7123 98.5137C94.2682 101.451 98.9891 106.892 102.459 110.414C112.389 120.495 123.333 130.696 133.078 140.827C128.134 146.061 121.955 152.194 117.747 157.862C115.403 161.516 112.904 165.059 110.335 168.557C103.63 177.685 98.5697 187.768 93.6398 197.934C89.5252 193.726 73.3701 178.482 71.3394 174.721L71.4991 173.597C72.3464 168.301 75.8092 158.023 77.1209 152.207C81.1813 134.197 86.3683 116.496 90.7123 98.5137Z" fill="#F5D835"/>
<path d="M343.09 60.9736C348.29 78.2783 357.009 95.284 362.403 112.656C356.321 116.783 350.338 121.056 344.462 125.472C335.868 117.833 327.335 112.091 318.814 104.81C324.767 97.346 336.604 66.5956 343.09 60.9736Z" fill="#ECB119"/>
<path d="M249.31 14.9531C253.889 18.7732 296.412 83.4172 296.816 87.0826C296.861 87.4863 296.867 87.8846 296.864 88.2902C281.763 77.1197 264.166 63.4699 249.471 51.81C249.495 39.6162 249.662 27.1192 249.31 14.9531Z" fill="#ECB119"/>
<path d="M316.289 246.802C319.789 246.097 334.12 239.114 338.282 237.012C348.431 231.889 359.117 227.26 369.553 222.722C377.097 219.441 393.278 211.106 400.593 209.604C389.869 236.634 371.654 267.837 360.68 295.053C355.266 288.805 316.724 249.896 316.289 246.802Z" fill="#ECB119"/>
<path d="M92.3933 315.161C96.5345 316.119 182.037 378.934 193.068 386.863C170.178 386.309 145.14 386.762 122.105 386.767C88.5562 386.927 55.0072 386.825 21.46 386.46C28.6094 378.054 44.6627 363.148 52.829 354.894C64.6918 342.905 79.957 326.115 92.3933 315.161Z" fill="#ECB119"/>
<path d="M71.4991 173.598C72.9249 173.974 109.213 158.529 117.747 157.862C115.403 161.517 112.904 165.06 110.335 168.558C103.63 177.686 98.5697 187.768 93.6398 197.935C89.5252 193.727 73.3701 178.482 71.3394 174.722L71.4991 173.598Z" fill="#ECB119"/>
<path d="M441.035 24.7803C441.735 28.0394 441.551 47.0633 441.556 51.5608L441.289 117.798C424.509 114.765 406.081 113.317 388.972 111.432L381.381 110.486C393.711 91.4062 407.851 73.1177 420.621 54.3003C427.34 44.4003 434.701 34.9355 441.035 24.7803Z" fill="#ECB119"/>
<path d="M380.145 122.863C396.868 123.696 421.461 128.022 438.822 130.028C431.877 144.18 424.455 158.983 418.105 173.345C414.757 180.411 411.288 187.419 407.7 194.366C403.511 184.82 399.949 174.068 396.091 164.296C390.763 150.799 384.575 136.633 380.145 122.863Z" fill="#5DBFD7"/>
<path d="M119.909 243.726C124.832 247.294 128.841 251.434 133.034 255.774C125.366 263.935 116.525 272.697 108.636 280.79C106.306 283.097 103.722 285.45 101.322 287.712C108.568 270.006 108.332 262.357 119.909 243.726Z" fill="#E25951"/>
<path d="M74.3511 196.646C75.7029 197.225 86.7443 207.996 89.5441 210.178C88.1935 217.625 85.7791 225.196 84.3724 233.17C84.2664 234.597 84.3502 235.695 83.5491 236.836C82.0623 235.662 75.1842 201.106 74.3511 196.646Z" fill="#E25951"/>
</svg>
