<svg width="1217" height="400" viewBox="0 0 1217 400" fill="none" xmlns="http://www.w3.org/2000/svg">
<path d="M1.66777 0L217.329 0.306799C216.728 32.0484 217.319 65.6652 217.349 97.5419C224.201 96.5605 230.517 95.6124 237.429 95.1378C236.94 63.7709 237.218 31.7038 237.215 0.280725L454.275 0.298357L454.227 399.239L329.932 399.229L237.219 399.286L237.285 176.957C230.626 177.287 223.97 177.652 217.314 178.052L217.362 399.237L0.0332149 399.255C0.490991 365.644 0.0988934 331.226 0.108576 297.544L0.0738571 85.7623L0.0560344 26.0282C0.0537526 22.456 -0.224565 2.90743 0.480754 0.467507L1.66777 0Z" fill="#434343"/>
<path d="M250.083 68.4473C258.79 74.513 266.003 80.4875 274.323 86.8529L314.089 117.137C321.885 123.08 329.467 129.869 337.776 134.975C333.868 138.077 329.972 141.367 326.167 144.603C301.592 165.504 273.896 184.287 249.597 205.362C250.242 192.153 249.99 178.13 249.967 164.851C208.54 164.327 181.699 168.757 147.376 194.624C128.836 208.857 111.553 229.66 101.297 250.715C98.3876 256.689 95.6914 264.945 93.4879 271.334C92.0997 184.691 152.259 112.635 240.549 107.602C243.707 107.422 246.863 107.3 250.024 107.186L250.083 68.4473Z" fill="white"/>
<path d="M12.6147 132.882C16.9773 137.235 21.967 142.738 26.2685 147.203C34.4632 155.71 53.0776 172.532 58.7469 181.527C55.0955 190.359 49.7 200.445 45.396 209.127L26.2142 248.407C23.7166 253.505 15.2592 272.514 12.6974 275.801L12.6147 132.882Z" fill="#4B9DD2"/>
<path d="M441.26 151.264C442.402 225.265 440.228 300.595 441.332 374.58C441.734 375.418 441.664 376.143 441.693 377.079L440.772 377.203C438.29 374.917 436.261 372.147 433.696 369.631C411.995 348.343 391.151 325.736 369.944 303.824C379.66 281.139 391.518 258.875 401.47 236.275C404.338 229.763 407.59 223.298 410.727 216.904C415.531 206.514 420.401 195.943 425.249 185.591C430.737 173.872 436.454 163.446 441.26 151.264Z" fill="#CC292A"/>
<path d="M441.26 151.264C442.401 225.265 440.228 300.595 441.332 374.58C439.467 372.217 438.612 363.904 437.925 360.447C435.559 348.621 433.286 336.776 431.108 324.914L410.727 216.904C415.531 206.514 420.401 195.943 425.249 185.591C430.737 173.872 436.454 163.446 441.26 151.264Z" fill="#E25951"/>
<path d="M249.31 14.9537L249.816 13.264C253.033 12.6069 265.592 12.9897 269.856 12.8923C287.787 12.4818 306.825 13.3436 324.654 12.7197C330.381 28.7792 337.107 44.9428 343.09 60.9739C348.29 78.2786 357.009 95.2843 362.404 112.656C356.321 116.783 350.338 121.056 344.462 125.472C335.868 117.834 327.335 112.091 318.815 104.81C311.489 99.3078 303.968 94.068 296.864 88.2907C281.763 77.1203 264.166 63.4705 249.471 51.8105C249.495 39.6168 249.662 27.1197 249.31 14.9537Z" fill="#F5D835"/>
<path d="M369.893 131.921C374.998 141.699 379.755 156.824 383.799 167.246C389.293 181.407 395.125 195.455 400.593 209.603C389.869 236.633 371.654 267.836 360.68 295.053C355.266 288.804 316.724 249.896 316.289 246.802C334.569 209.301 351.913 169.803 369.893 131.921Z" fill="#F5D835"/>
<path d="M202.578 19.1049L203.863 18.2881L204.74 18.9082C205.444 23.8416 205.207 39.3623 205.231 44.8677C205.321 63.3171 205.26 81.7671 205.049 100.216C190.631 105.017 179.247 109.44 165.69 116.522C161.188 118.874 151.414 125.905 148.491 127.217C146.568 128.957 143.62 131.101 141.499 132.74C131.837 122.63 122.473 112.926 112.438 103.124C107.529 98.3295 102.592 93.9245 97.896 88.898L202.578 19.1049Z" fill="#4B9DD2"/>
<path d="M12.6147 132.882C16.9772 137.235 21.9669 142.738 26.2684 147.203C34.4631 155.71 53.0775 172.532 58.7469 181.527C60.4138 188.803 61.2975 196.266 62.8979 203.571C69.1981 232.327 76.4807 260.845 82.1056 289.744C83.0195 294.439 84.2992 299.605 85.4555 304.257C79.5173 309.237 70.6473 319.266 64.8121 325.234L26.7611 363.746C22.0915 368.526 17.3281 374.311 12.7275 378.86L12.6042 309.917C12.6128 300.063 12.0837 284.963 12.6973 275.801L12.6147 132.882Z" fill="#2E76AF"/>
<path d="M202.578 19.1049L203.863 18.2881L204.74 18.9082C205.444 23.8416 205.207 39.3623 205.231 44.8677C205.321 63.3171 205.26 81.7671 205.049 100.216C190.631 105.017 179.247 109.44 165.69 116.522C161.188 118.874 151.414 125.905 148.491 127.217C149.654 123.29 157.218 109.477 159.661 104.707C165.592 93.1305 172.343 80.0287 178.146 68.5204C183.182 58.5341 200.28 28.5049 202.578 19.1049Z" fill="#2E76AF"/>
<path d="M361.895 312.975C365.885 317.642 371.611 322.718 375.971 327.471C394.353 347.51 414.452 367.008 433.076 386.683C400.836 387.412 366.375 386.797 333.963 386.79L261.982 386.794C269.96 379.311 287.8 367.328 297.182 360.255C318.355 344.294 340.644 328.903 361.895 312.975Z" fill="#2E76AF"/>
<path d="M25.2557 12.933C79.4913 13.0218 135.993 12.0275 189.948 13.1697C177.061 22.1327 161.84 32.0001 148.641 40.5396C129.675 53.2814 108.021 67.7171 88.772 79.6754C80.1709 72.4156 68.313 59.3699 60.0461 51.175C47.6943 38.9301 35.1962 26.5187 22.9023 14.2115L23.0756 13.301L25.2557 12.933Z" fill="#4B9DD2"/>
<path d="M136.029 222.581C148.916 203.576 182.532 185.464 205.165 180.617C205.172 183.932 205.143 187.246 205.077 190.56C205.029 230.811 204.56 272.24 205.123 312.425L161.997 268.187C150.352 256.392 138.561 244.986 127.204 232.904C130.042 229.376 132.985 225.933 136.029 222.581Z" fill="#5DBFD7"/>
<path d="M136.029 222.581C148.916 203.576 182.533 185.464 205.165 180.617C205.172 183.932 205.143 187.246 205.077 190.56C201.509 191.413 185.985 199.37 181.855 201.306C166.67 208.422 151.524 216.133 136.029 222.581Z" fill="#4B9DD2"/>
<path d="M12.6967 21.7461C14.9674 23.3784 19.2664 28.1164 21.4273 30.2468C40.9131 49.4581 61.107 68.8216 80.1099 88.449C79.2022 95.9462 76.3092 105.866 74.3284 113.386L64.7424 149.63C63.3567 154.909 62.0246 160.202 60.7468 165.508C45.7105 148.768 28.2597 132.253 12.7183 115.577C12.0584 85.9019 12.2755 51.4677 12.6967 21.7461Z" fill="#5DBFD7"/>
<path d="M141.047 264.45C149.181 272.365 156.328 280.426 164.803 288.155C176.555 300.747 195.02 317.569 205.026 329.49C205.132 346.473 205.129 363.456 205.017 380.439C197.327 375.873 188.124 368.468 180.719 362.953C171.918 356.399 159.376 348.289 151.254 341.244C136.222 332.131 116.809 315.85 101.299 305.434C115.203 292.465 127.904 278.056 141.047 264.45Z" fill="#CC292A"/>
<path d="M141.047 264.45C149.181 272.365 156.328 280.426 164.803 288.155C160.53 304.09 155.784 319.764 152.504 335.941C152.157 337.657 151.735 339.569 151.254 341.244C136.222 332.131 116.809 315.85 101.299 305.434C115.203 292.465 127.904 278.056 141.047 264.45Z" fill="#E25951"/>
<path d="M337.218 12.7809L370.259 13.0053C391.311 12.517 413.72 12.9313 434.859 13.1816C423.341 29.2404 412.266 45.5205 400.633 61.5387C391.194 74.5357 382.034 89.1446 371.974 101.562C366.427 90.2055 363.217 80.6846 359.001 68.7978C356.309 61.2101 352.613 53.647 350.281 45.8528C345.908 34.6897 342.571 23.4625 337.218 12.7809Z" fill="#CC292A"/>
<path d="M337.218 12.7812L370.259 13.0056C363.671 22.0556 356.399 35.8619 350.281 45.8532C345.908 34.6901 342.571 23.4629 337.218 12.7812Z" fill="#E25951"/>
<path d="M310.232 259.532C315.596 262.569 330.827 282.408 337.16 287.518C340.789 290.446 348.502 300.09 352.899 304.316C347.75 307.813 341.997 312.568 336.729 316.356C318.446 329.451 300.347 342.801 282.437 356.402C274.196 361.618 265.034 369.123 256.992 375.096C274.761 337.785 293.916 297.419 310.232 259.532Z" fill="#4B9DD2"/>
<path d="M249.284 228.478C261.404 233.682 273.13 239.769 285.265 244.946C290.577 247.212 295.851 249.553 300.785 252.576C296.231 261.254 292.082 269.575 288.173 278.572C281.361 294.252 273.601 309.518 266.738 325.19C261.838 336.364 254.947 350.618 249.488 361.584C248.902 348.145 249.408 331.202 249.419 317.462L249.284 228.478Z" fill="#5DBFD7"/>
<path d="M306.923 175.799C321.165 164.736 334.783 153.211 348.684 141.725C350.296 140.393 351.58 139.297 353.355 138.166C346.42 154.527 338.943 169.429 331.437 185.32L307.156 237.065C306.64 238.593 306.524 239.294 305.266 240.368C303.118 239.664 301.269 238.884 299.23 237.93C284.172 230.891 268.793 224.745 253.939 217.261C260.395 211.656 268.233 206.679 274.801 201.024C285.056 192.194 296.657 184.549 306.923 175.799Z" fill="#2E76AF"/>
<path d="M306.922 175.799C321.165 164.736 334.783 153.211 348.683 141.725C350.296 140.393 351.58 139.297 353.354 138.166C346.42 154.527 338.943 169.429 331.437 185.32L307.156 237.065C305.732 234.829 307.041 183.536 306.922 175.799Z" fill="#4B9DD2"/>
<path d="M90.7123 98.5137C94.2682 101.451 98.9891 106.892 102.459 110.414C112.389 120.495 123.333 130.696 133.078 140.827C128.134 146.061 121.955 152.194 117.747 157.862C115.403 161.516 112.904 165.059 110.335 168.557C103.63 177.685 98.5697 187.768 93.6398 197.934C89.5252 193.726 73.3701 178.482 71.3394 174.721L71.4991 173.597C72.3464 168.301 75.8092 158.023 77.1209 152.207C81.1813 134.197 86.3683 116.496 90.7123 98.5137Z" fill="#F5D835"/>
<path d="M343.09 60.9736C348.29 78.2783 357.009 95.284 362.403 112.656C356.321 116.783 350.338 121.056 344.462 125.472C335.868 117.833 327.335 112.091 318.814 104.81C324.767 97.346 336.604 66.5956 343.09 60.9736Z" fill="#ECB119"/>
<path d="M249.31 14.9531C253.889 18.7732 296.412 83.4172 296.816 87.0826C296.861 87.4863 296.867 87.8846 296.864 88.2902C281.763 77.1197 264.166 63.4699 249.471 51.81C249.495 39.6162 249.662 27.1192 249.31 14.9531Z" fill="#ECB119"/>
<path d="M316.289 246.802C319.789 246.097 334.12 239.114 338.282 237.012C348.431 231.889 359.117 227.26 369.553 222.722C377.097 219.441 393.278 211.106 400.593 209.604C389.869 236.634 371.654 267.837 360.68 295.053C355.266 288.805 316.724 249.896 316.289 246.802Z" fill="#ECB119"/>
<path d="M92.3933 315.161C96.5345 316.119 182.037 378.934 193.068 386.863C170.178 386.309 145.14 386.762 122.105 386.767C88.5562 386.927 55.0072 386.825 21.46 386.46C28.6094 378.054 44.6627 363.148 52.829 354.894C64.6918 342.905 79.957 326.115 92.3933 315.161Z" fill="#ECB119"/>
<path d="M71.4991 173.598C72.9249 173.974 109.213 158.529 117.747 157.862C115.403 161.517 112.904 165.06 110.335 168.558C103.63 177.686 98.5697 187.768 93.6398 197.935C89.5252 193.727 73.3701 178.482 71.3394 174.722L71.4991 173.598Z" fill="#ECB119"/>
<path d="M441.035 24.7803C441.735 28.0394 441.551 47.0633 441.556 51.5608L441.289 117.798C424.509 114.765 406.081 113.317 388.972 111.432L381.381 110.486C393.711 91.4062 407.851 73.1177 420.621 54.3003C427.34 44.4003 434.701 34.9355 441.035 24.7803Z" fill="#ECB119"/>
<path d="M380.145 122.863C396.868 123.696 421.461 128.022 438.822 130.028C431.877 144.18 424.455 158.983 418.105 173.345C414.757 180.411 411.288 187.419 407.7 194.366C403.511 184.82 399.949 174.068 396.091 164.296C390.763 150.799 384.575 136.633 380.145 122.863Z" fill="#5DBFD7"/>
<path d="M119.909 243.726C124.832 247.294 128.841 251.434 133.034 255.774C125.366 263.935 116.525 272.697 108.636 280.79C106.306 283.097 103.722 285.45 101.322 287.712C108.568 270.006 108.332 262.357 119.909 243.726Z" fill="#E25951"/>
<path d="M74.3511 196.646C75.7029 197.225 86.7443 207.996 89.5441 210.178C88.1935 217.625 85.7791 225.196 84.3724 233.17C84.2664 234.597 84.3502 235.695 83.5491 236.836C82.0623 235.662 75.1842 201.106 74.3511 196.646Z" fill="#E25951"/>
<path d="M1214.4 127.704L1215.71 127.74L1216.31 128.71L1216.29 214.275C1216.28 236.827 1218.63 278.503 1212.45 298.256C1207.58 313.84 1197.3 327.549 1182.67 335.142C1172.32 340.512 1156.06 345.362 1144.51 341.674C1137.06 335.637 1139.56 324.036 1148.35 322.954C1190.55 317.762 1183.76 273.877 1183.71 244.022L1183.67 166.887C1183.67 158.874 1182.52 146.549 1187.44 140.348C1194.13 131.917 1204.28 129.148 1214.4 127.704Z" fill="#434343"/>
<path d="M1204.32 140.971L1205.06 141.161C1205.77 142.888 1205.41 202.637 1205.41 207.913L1200.3 203.405L1194.41 197.751C1194.45 186.169 1193.74 158.13 1194.87 147.589C1198.15 144.452 1200.4 143.226 1204.32 140.971Z" fill="#5DBFD7"/>
<path d="M1205.1 269.233C1207.65 272.954 1203.02 295.187 1200.86 300.053C1195.05 313.126 1186.54 321.273 1173.43 326.611L1173.01 326.251C1173.4 324.4 1178.58 320.935 1180.22 319.05C1191.46 306.141 1193.96 292.841 1194.22 276.874C1197.97 273.665 1200.96 271.84 1205.1 269.233Z" fill="#E25951"/>
<path d="M1194.34 214.088C1197.04 215.119 1203.3 221.446 1205.43 223.663C1205.43 233.919 1205.26 244.626 1205.79 254.831L1202.04 258.013C1199.69 259.603 1196.73 261.342 1194.28 262.864C1194.19 246.593 1194.53 230.45 1194.34 214.088Z" fill="#ECB119"/>
<path d="M1205.19 52.9085C1205.6 52.8857 1206.01 52.956 1206.38 53.1138C1207.56 53.5983 1208.97 55.7373 1209.61 56.8586C1218.27 71.8664 1219.6 93.4103 1206.82 106.577C1201.12 112.439 1194.59 114.862 1187.14 117.477L1185.36 117.218C1181.17 112.463 1178.43 104.088 1177.37 97.9541C1173.58 75.9399 1185.71 60.4925 1205.19 52.9085Z" fill="#434343"/>
<path d="M1188.7 79.241C1192.27 72.9484 1196.56 69.1623 1202.26 64.6826C1205.48 74.5167 1206.72 81.2617 1204.42 91.6765C1200.6 99.5465 1197.5 102.126 1189.84 105.979C1186.15 97.0271 1185.81 88.4303 1188.7 79.241Z" fill="#2E76AF"/>
<path d="M1188.7 79.241C1192.27 72.9484 1196.56 69.1623 1202.26 64.6826C1205.48 74.5167 1206.72 81.2617 1204.42 91.6765C1200.73 88.1695 1192.98 82.5791 1188.7 79.241Z" fill="#5DBFD7"/>
<path d="M593.42 276.871C588.506 276.871 584.775 274.141 582.227 268.681L522.713 143.101C521.439 140.371 521.348 137.732 522.44 135.184C523.532 132.454 525.534 130.361 528.446 128.905C531.358 127.449 534.179 127.267 536.909 128.359C539.639 129.269 541.732 131.089 543.188 133.819L599.426 255.577H587.414L643.106 133.819C644.38 131.089 646.473 129.269 649.385 128.359C652.479 127.267 655.482 127.449 658.394 128.905C661.306 130.179 663.217 132.181 664.127 134.911C665.037 137.641 664.946 140.371 663.854 143.101L604.886 268.681C602.338 274.141 598.516 276.871 593.42 276.871ZM708.84 276.871C705.2 276.871 702.197 275.779 699.831 273.595C697.647 271.229 696.555 268.317 696.555 264.859V139.552C696.555 135.912 697.647 133 699.831 130.816C702.197 128.632 705.2 127.54 708.84 127.54C712.298 127.54 715.119 128.632 717.303 130.816C719.487 133 720.579 135.912 720.579 139.552V264.859C720.579 268.317 719.487 271.229 717.303 273.595C715.119 275.779 712.298 276.871 708.84 276.871ZM708.567 101.059C704.199 101.059 700.377 99.5121 697.101 96.4181C694.007 93.1421 692.46 89.2291 692.46 84.6791C692.46 79.9471 694.098 76.0341 697.374 72.9401C700.65 69.8461 704.472 68.2991 708.84 68.2991C713.208 68.2991 716.939 69.8461 720.033 72.9401C723.309 76.0341 724.947 79.9471 724.947 84.6791C724.947 89.2291 723.309 93.1421 720.033 96.4181C716.939 99.5121 713.117 101.059 708.567 101.059ZM830.03 276.871C820.748 276.871 812.376 274.596 804.914 270.046C797.452 265.496 791.537 259.217 787.169 251.209C782.983 243.201 780.89 234.192 780.89 224.182V92.0501C780.89 88.5921 781.982 85.7711 784.166 83.5871C786.35 81.2211 789.171 80.0381 792.629 80.0381C796.087 80.0381 798.908 81.2211 801.092 83.5871C803.458 85.7711 804.641 88.5921 804.641 92.0501V224.182C804.641 232.554 807.007 239.47 811.739 244.93C816.653 250.39 822.75 253.12 830.03 253.12H838.22C841.314 253.12 843.862 254.212 845.864 256.396C848.048 258.58 849.14 261.492 849.14 265.132C849.14 268.59 847.866 271.411 845.318 273.595C842.77 275.779 839.494 276.871 835.49 276.871H830.03ZM765.329 153.475C762.235 153.475 759.596 152.565 757.412 150.745C755.41 148.743 754.409 146.286 754.409 143.374C754.409 140.28 755.41 137.823 757.412 136.003C759.596 134.001 762.235 133 765.329 133H832.214C835.308 133 837.856 134.001 839.858 136.003C842.042 137.823 843.134 140.28 843.134 143.374C843.134 146.286 842.042 148.743 839.858 150.745C837.856 152.565 835.308 153.475 832.214 153.475H765.329ZM894.279 184.324C894.461 173.222 897.191 163.303 902.469 154.567C907.929 145.649 915.027 138.642 923.763 133.546C932.681 128.45 942.509 125.902 953.247 125.902C962.893 125.902 970.082 127.358 974.814 130.27C979.728 133.182 981.639 137.004 980.547 141.736C979.819 144.284 978.636 146.104 976.998 147.196C975.36 148.288 973.449 148.925 971.265 149.107C969.081 149.107 966.533 148.925 963.621 148.561C952.883 147.105 943.237 147.651 934.683 150.199C926.129 152.747 919.395 156.933 914.481 162.757C909.567 168.581 907.11 175.77 907.11 184.324H894.279ZM895.098 276.871C891.458 276.871 888.546 275.87 886.362 273.868C884.36 271.866 883.359 268.954 883.359 265.132V139.279C883.359 135.639 884.36 132.818 886.362 130.816C888.546 128.632 891.458 127.54 895.098 127.54C898.92 127.54 901.832 128.541 903.834 130.543C906.018 132.545 907.11 135.457 907.11 139.279V265.132C907.11 268.772 906.018 271.684 903.834 273.868C901.832 275.87 898.92 276.871 895.098 276.871ZM1064.82 278.236C1051.17 278.236 1038.88 274.96 1027.96 268.408C1017.23 261.674 1008.67 252.574 1002.3 241.108C995.932 229.642 992.747 216.72 992.747 202.342C992.747 187.782 996.023 174.769 1002.57 163.303C1009.31 151.837 1018.41 142.828 1029.87 136.276C1041.34 129.542 1054.26 126.175 1068.64 126.175C1082.84 126.175 1095.58 129.542 1106.86 136.276C1118.33 142.828 1127.34 151.837 1133.89 163.303C1140.62 174.769 1143.99 187.782 1143.99 202.342L1134.71 205.891C1134.71 219.541 1131.61 231.826 1125.42 242.746C1119.42 253.666 1111.14 262.311 1100.58 268.681C1090.03 275.051 1078.1 278.236 1064.82 278.236ZM1068.64 256.669C1078.47 256.669 1087.3 254.303 1095.12 249.571C1103.13 244.839 1109.32 238.378 1113.69 230.188C1118.24 221.816 1120.51 212.534 1120.51 202.342C1120.51 191.968 1118.24 182.686 1113.69 174.496C1109.32 166.306 1103.13 159.845 1095.12 155.113C1087.3 150.199 1078.47 147.742 1068.64 147.742C1058.81 147.742 1049.89 150.199 1041.89 155.113C1034.06 159.845 1027.78 166.306 1023.05 174.496C1018.5 182.686 1016.22 191.968 1016.22 202.342C1016.22 212.534 1018.5 221.816 1023.05 230.188C1027.78 238.378 1034.06 244.839 1041.89 249.571C1049.89 254.303 1058.81 256.669 1068.64 256.669ZM1131.98 276.871C1128.52 276.871 1125.61 275.779 1123.24 273.595C1121.06 271.411 1119.96 268.59 1119.96 265.132V220.633L1125.15 195.79L1143.99 202.342V265.132C1143.99 268.59 1142.81 271.411 1140.44 273.595C1138.26 275.779 1135.43 276.871 1131.98 276.871Z" fill="#434343"/>
<path d="M572.523 322.24C571.456 320.811 570.304 319.819 569.067 319.264C567.83 318.688 566.443 318.4 564.907 318.4C561.899 318.4 559.584 319.478 557.963 321.632C556.342 323.787 555.531 326.859 555.531 330.848C555.531 332.96 555.712 334.774 556.075 336.288C556.438 337.782 556.971 339.019 557.675 340C558.379 340.96 559.243 341.664 560.267 342.112C561.291 342.56 562.454 342.784 563.755 342.784C565.632 342.784 567.264 342.358 568.651 341.504C570.059 340.651 571.35 339.446 572.523 337.888V322.24ZM578.219 299.808V346.944H574.827C574.016 346.944 573.504 346.55 573.291 345.76L572.779 341.824C571.392 343.488 569.814 344.832 568.043 345.856C566.272 346.88 564.224 347.392 561.899 347.392C560.043 347.392 558.358 347.04 556.843 346.336C555.328 345.611 554.038 344.555 552.971 343.168C551.904 341.782 551.083 340.054 550.507 337.984C549.931 335.915 549.643 333.536 549.643 330.848C549.643 328.459 549.963 326.24 550.603 324.192C551.243 322.123 552.16 320.331 553.355 318.816C554.55 317.302 556.011 316.118 557.739 315.264C559.488 314.39 561.451 313.952 563.627 313.952C565.611 313.952 567.307 314.294 568.715 314.976C570.144 315.638 571.414 316.566 572.523 317.76V299.808H578.219ZM613.872 314.528V346.944H610.48C609.669 346.944 609.157 346.55 608.944 345.76L608.496 342.272C607.088 343.83 605.509 345.088 603.76 346.048C602.01 346.987 600.005 347.456 597.744 347.456C595.973 347.456 594.405 347.168 593.04 346.592C591.696 345.995 590.565 345.163 589.648 344.096C588.73 343.03 588.037 341.739 587.568 340.224C587.12 338.71 586.896 337.035 586.896 335.2V314.528H592.592V335.2C592.592 337.654 593.146 339.552 594.256 340.896C595.386 342.24 597.104 342.912 599.408 342.912C601.093 342.912 602.661 342.518 604.112 341.728C605.584 340.918 606.938 339.808 608.176 338.4V314.528H613.872ZM640.471 332.352C637.847 332.438 635.607 332.651 633.751 332.992C631.916 333.312 630.412 333.739 629.239 334.272C628.087 334.806 627.244 335.435 626.711 336.16C626.199 336.886 625.943 337.696 625.943 338.592C625.943 339.446 626.082 340.182 626.359 340.8C626.636 341.419 627.01 341.931 627.479 342.336C627.97 342.72 628.535 343.008 629.175 343.2C629.836 343.371 630.54 343.456 631.287 343.456C632.29 343.456 633.207 343.36 634.039 343.168C634.871 342.955 635.65 342.656 636.375 342.272C637.122 341.888 637.826 341.43 638.487 340.896C639.17 340.363 639.831 339.755 640.471 339.072V332.352ZM622.071 319.104C623.863 317.376 625.794 316.086 627.863 315.232C629.932 314.379 632.226 313.952 634.743 313.952C636.556 313.952 638.167 314.251 639.575 314.848C640.983 315.446 642.167 316.278 643.127 317.344C644.087 318.411 644.812 319.702 645.303 321.216C645.794 322.731 646.039 324.395 646.039 326.208V346.944H643.511C642.956 346.944 642.53 346.859 642.231 346.688C641.932 346.496 641.698 346.134 641.527 345.6L640.887 342.528C640.034 343.318 639.202 344.022 638.391 344.64C637.58 345.238 636.727 345.75 635.831 346.176C634.935 346.582 633.975 346.891 632.951 347.104C631.948 347.339 630.828 347.456 629.591 347.456C628.332 347.456 627.148 347.286 626.039 346.944C624.93 346.582 623.959 346.048 623.127 345.344C622.316 344.64 621.666 343.755 621.175 342.688C620.706 341.6 620.471 340.32 620.471 338.848C620.471 337.568 620.823 336.342 621.527 335.168C622.231 333.974 623.372 332.918 624.951 332C626.53 331.083 628.588 330.336 631.127 329.76C633.666 329.163 636.78 328.822 640.471 328.736V326.208C640.471 323.691 639.927 321.792 638.839 320.512C637.751 319.211 636.162 318.56 634.071 318.56C632.663 318.56 631.479 318.742 630.519 319.104C629.58 319.446 628.759 319.84 628.055 320.288C627.372 320.715 626.775 321.11 626.263 321.472C625.772 321.814 625.282 321.984 624.791 321.984C624.407 321.984 624.076 321.888 623.799 321.696C623.522 321.483 623.287 321.227 623.095 320.928L622.071 319.104ZM660.604 299.808V346.944H654.908V299.808H660.604ZM691.944 339.136C692.989 340.544 694.13 341.536 695.368 342.112C696.605 342.688 697.992 342.976 699.528 342.976C702.557 342.976 704.882 341.899 706.504 339.744C708.125 337.59 708.936 334.518 708.936 330.528C708.936 328.416 708.744 326.603 708.36 325.088C707.997 323.574 707.464 322.336 706.76 321.376C706.056 320.395 705.192 319.68 704.168 319.232C703.144 318.784 701.981 318.56 700.68 318.56C698.824 318.56 697.192 318.987 695.784 319.84C694.397 320.694 693.117 321.899 691.944 323.456V339.136ZM691.656 319.552C693.021 317.867 694.6 316.512 696.392 315.488C698.184 314.464 700.232 313.952 702.536 313.952C704.413 313.952 706.109 314.315 707.624 315.04C709.138 315.744 710.429 316.8 711.496 318.208C712.562 319.595 713.384 321.323 713.96 323.392C714.536 325.462 714.824 327.84 714.824 330.528C714.824 332.918 714.504 335.147 713.864 337.216C713.224 339.264 712.296 341.046 711.08 342.56C709.885 344.054 708.413 345.238 706.664 346.112C704.936 346.966 702.984 347.392 700.808 347.392C698.824 347.392 697.117 347.062 695.688 346.4C694.28 345.718 693.032 344.779 691.944 343.584V357.92H686.216V314.528H689.64C690.45 314.528 690.952 314.923 691.144 315.712L691.656 319.552ZM739.659 332.352C737.035 332.438 734.795 332.651 732.939 332.992C731.104 333.312 729.6 333.739 728.427 334.272C727.275 334.806 726.432 335.435 725.899 336.16C725.387 336.886 725.131 337.696 725.131 338.592C725.131 339.446 725.269 340.182 725.547 340.8C725.824 341.419 726.197 341.931 726.667 342.336C727.157 342.72 727.723 343.008 728.363 343.2C729.024 343.371 729.728 343.456 730.475 343.456C731.477 343.456 732.395 343.36 733.227 343.168C734.059 342.955 734.837 342.656 735.563 342.272C736.309 341.888 737.013 341.43 737.675 340.896C738.357 340.363 739.019 339.755 739.659 339.072V332.352ZM721.259 319.104C723.051 317.376 724.981 316.086 727.051 315.232C729.12 314.379 731.413 313.952 733.931 313.952C735.744 313.952 737.355 314.251 738.763 314.848C740.171 315.446 741.355 316.278 742.315 317.344C743.275 318.411 744 319.702 744.491 321.216C744.981 322.731 745.227 324.395 745.227 326.208V346.944H742.699C742.144 346.944 741.717 346.859 741.419 346.688C741.12 346.496 740.885 346.134 740.715 345.6L740.075 342.528C739.221 343.318 738.389 344.022 737.579 344.64C736.768 345.238 735.915 345.75 735.019 346.176C734.123 346.582 733.163 346.891 732.139 347.104C731.136 347.339 730.016 347.456 728.779 347.456C727.52 347.456 726.336 347.286 725.227 346.944C724.117 346.582 723.147 346.048 722.315 345.344C721.504 344.64 720.853 343.755 720.363 342.688C719.893 341.6 719.659 340.32 719.659 338.848C719.659 337.568 720.011 336.342 720.715 335.168C721.419 333.974 722.56 332.918 724.139 332C725.717 331.083 727.776 330.336 730.315 329.76C732.853 329.163 735.968 328.822 739.659 328.736V326.208C739.659 323.691 739.115 321.792 738.027 320.512C736.939 319.211 735.349 318.56 733.259 318.56C731.851 318.56 730.667 318.742 729.707 319.104C728.768 319.446 727.947 319.84 727.243 320.288C726.56 320.715 725.963 321.11 725.451 321.472C724.96 321.814 724.469 321.984 723.979 321.984C723.595 321.984 723.264 321.888 722.987 321.696C722.709 321.483 722.475 321.227 722.283 320.928L721.259 319.104ZM759.279 319.232C759.983 318.443 760.73 317.728 761.519 317.088C762.308 316.448 763.14 315.904 764.015 315.456C764.911 314.987 765.85 314.635 766.831 314.4C767.834 314.144 768.911 314.016 770.063 314.016C771.834 314.016 773.391 314.315 774.735 314.912C776.1 315.488 777.231 316.32 778.127 317.408C779.044 318.475 779.738 319.766 780.207 321.28C780.676 322.795 780.911 324.47 780.911 326.304V346.944H775.183V326.304C775.183 323.851 774.618 321.952 773.487 320.608C772.378 319.243 770.682 318.56 768.399 318.56C766.714 318.56 765.135 318.966 763.663 319.776C762.212 320.587 760.868 321.686 759.631 323.072V346.944H753.903V314.528H757.327C758.138 314.528 758.639 314.923 758.831 315.712L759.279 319.232ZM811.287 327.2C811.287 325.878 811.095 324.672 810.711 323.584C810.348 322.475 809.804 321.526 809.079 320.736C808.375 319.926 807.511 319.307 806.487 318.88C805.463 318.432 804.3 318.208 802.999 318.208C800.268 318.208 798.103 319.008 796.503 320.608C794.924 322.187 793.943 324.384 793.559 327.2H811.287ZM815.895 342.4C815.191 343.254 814.348 344 813.367 344.64C812.385 345.259 811.329 345.771 810.199 346.176C809.089 346.582 807.937 346.88 806.743 347.072C805.548 347.286 804.364 347.392 803.191 347.392C800.951 347.392 798.881 347.019 796.983 346.272C795.105 345.504 793.473 344.395 792.087 342.944C790.721 341.472 789.655 339.659 788.887 337.504C788.119 335.35 787.735 332.875 787.735 330.08C787.735 327.819 788.076 325.707 788.759 323.744C789.463 321.782 790.465 320.086 791.767 318.656C793.068 317.206 794.657 316.075 796.535 315.264C798.412 314.432 800.524 314.016 802.871 314.016C804.812 314.016 806.604 314.347 808.247 315.008C809.911 315.648 811.34 316.587 812.535 317.824C813.751 319.04 814.7 320.555 815.383 322.368C816.065 324.16 816.407 326.208 816.407 328.512C816.407 329.408 816.311 330.006 816.119 330.304C815.927 330.603 815.564 330.752 815.031 330.752H793.367C793.431 332.8 793.708 334.582 794.199 336.096C794.711 337.611 795.415 338.88 796.311 339.904C797.207 340.907 798.273 341.664 799.511 342.176C800.748 342.667 802.135 342.912 803.671 342.912C805.1 342.912 806.327 342.752 807.351 342.432C808.396 342.091 809.292 341.728 810.039 341.344C810.785 340.96 811.404 340.608 811.895 340.288C812.407 339.947 812.844 339.776 813.207 339.776C813.676 339.776 814.039 339.958 814.295 340.32L815.895 342.4ZM839.778 346.944V314.528H843.202C844.013 314.528 844.514 314.923 844.706 315.712L845.122 319.04C846.317 317.568 847.661 316.363 849.154 315.424C850.647 314.486 852.375 314.016 854.338 314.016C856.514 314.016 858.274 314.624 859.618 315.84C860.983 317.056 861.965 318.699 862.562 320.768C863.031 319.595 863.629 318.582 864.354 317.728C865.101 316.875 865.933 316.171 866.85 315.616C867.767 315.062 868.738 314.656 869.762 314.4C870.807 314.144 871.863 314.016 872.93 314.016C874.637 314.016 876.151 314.294 877.474 314.848C878.818 315.382 879.949 316.171 880.866 317.216C881.805 318.262 882.519 319.552 883.01 321.088C883.501 322.603 883.746 324.342 883.746 326.304V346.944H878.018V326.304C878.018 323.766 877.463 321.846 876.354 320.544C875.245 319.222 873.645 318.56 871.554 318.56C870.615 318.56 869.719 318.731 868.866 319.072C868.034 319.392 867.298 319.872 866.658 320.512C866.018 321.152 865.506 321.963 865.122 322.944C864.759 323.904 864.578 325.024 864.578 326.304V346.944H858.85V326.304C858.85 323.702 858.327 321.76 857.282 320.48C856.237 319.2 854.711 318.56 852.706 318.56C851.298 318.56 849.997 318.944 848.802 319.712C847.607 320.459 846.509 321.483 845.506 322.784V346.944H839.778ZM909.971 332.352C907.347 332.438 905.107 332.651 903.251 332.992C901.416 333.312 899.912 333.739 898.739 334.272C897.587 334.806 896.744 335.435 896.211 336.16C895.699 336.886 895.443 337.696 895.443 338.592C895.443 339.446 895.582 340.182 895.859 340.8C896.136 341.419 896.51 341.931 896.979 342.336C897.47 342.72 898.035 343.008 898.675 343.2C899.336 343.371 900.04 343.456 900.787 343.456C901.79 343.456 902.707 343.36 903.539 343.168C904.371 342.955 905.15 342.656 905.875 342.272C906.622 341.888 907.326 341.43 907.987 340.896C908.67 340.363 909.331 339.755 909.971 339.072V332.352ZM891.571 319.104C893.363 317.376 895.294 316.086 897.363 315.232C899.432 314.379 901.726 313.952 904.243 313.952C906.056 313.952 907.667 314.251 909.075 314.848C910.483 315.446 911.667 316.278 912.627 317.344C913.587 318.411 914.312 319.702 914.803 321.216C915.294 322.731 915.539 324.395 915.539 326.208V346.944H913.011C912.456 346.944 912.03 346.859 911.731 346.688C911.432 346.496 911.198 346.134 911.027 345.6L910.387 342.528C909.534 343.318 908.702 344.022 907.891 344.64C907.08 345.238 906.227 345.75 905.331 346.176C904.435 346.582 903.475 346.891 902.451 347.104C901.448 347.339 900.328 347.456 899.091 347.456C897.832 347.456 896.648 347.286 895.539 346.944C894.43 346.582 893.459 346.048 892.627 345.344C891.816 344.64 891.166 343.755 890.675 342.688C890.206 341.6 889.971 340.32 889.971 338.848C889.971 337.568 890.323 336.342 891.027 335.168C891.731 333.974 892.872 332.918 894.451 332C896.03 331.083 898.088 330.336 900.627 329.76C903.166 329.163 906.28 328.822 909.971 328.736V326.208C909.971 323.691 909.427 321.792 908.339 320.512C907.251 319.211 905.662 318.56 903.571 318.56C902.163 318.56 900.979 318.742 900.019 319.104C899.08 319.446 898.259 319.84 897.555 320.288C896.872 320.715 896.275 321.11 895.763 321.472C895.272 321.814 894.782 321.984 894.291 321.984C893.907 321.984 893.576 321.888 893.299 321.696C893.022 321.483 892.787 321.227 892.595 320.928L891.571 319.104ZM929.592 319.232C930.296 318.443 931.042 317.728 931.832 317.088C932.621 316.448 933.453 315.904 934.328 315.456C935.224 314.987 936.162 314.635 937.144 314.4C938.146 314.144 939.224 314.016 940.376 314.016C942.146 314.016 943.704 314.315 945.048 314.912C946.413 315.488 947.544 316.32 948.44 317.408C949.357 318.475 950.05 319.766 950.52 321.28C950.989 322.795 951.224 324.47 951.224 326.304V346.944H945.496V326.304C945.496 323.851 944.93 321.952 943.8 320.608C942.69 319.243 940.994 318.56 938.712 318.56C937.026 318.56 935.448 318.966 933.976 319.776C932.525 320.587 931.181 321.686 929.944 323.072V346.944H924.216V314.528H927.64C928.45 314.528 928.952 314.923 929.144 315.712L929.592 319.232ZM977.471 332.352C974.847 332.438 972.607 332.651 970.751 332.992C968.916 333.312 967.412 333.739 966.239 334.272C965.087 334.806 964.244 335.435 963.711 336.16C963.199 336.886 962.943 337.696 962.943 338.592C962.943 339.446 963.082 340.182 963.359 340.8C963.636 341.419 964.01 341.931 964.479 342.336C964.97 342.72 965.535 343.008 966.175 343.2C966.836 343.371 967.54 343.456 968.287 343.456C969.29 343.456 970.207 343.36 971.039 343.168C971.871 342.955 972.65 342.656 973.375 342.272C974.122 341.888 974.826 341.43 975.487 340.896C976.17 340.363 976.831 339.755 977.471 339.072V332.352ZM959.071 319.104C960.863 317.376 962.794 316.086 964.863 315.232C966.932 314.379 969.226 313.952 971.743 313.952C973.556 313.952 975.167 314.251 976.575 314.848C977.983 315.446 979.167 316.278 980.127 317.344C981.087 318.411 981.812 319.702 982.303 321.216C982.794 322.731 983.039 324.395 983.039 326.208V346.944H980.511C979.956 346.944 979.53 346.859 979.231 346.688C978.932 346.496 978.698 346.134 978.527 345.6L977.887 342.528C977.034 343.318 976.202 344.022 975.391 344.64C974.58 345.238 973.727 345.75 972.831 346.176C971.935 346.582 970.975 346.891 969.951 347.104C968.948 347.339 967.828 347.456 966.591 347.456C965.332 347.456 964.148 347.286 963.039 346.944C961.93 346.582 960.959 346.048 960.127 345.344C959.316 344.64 958.666 343.755 958.175 342.688C957.706 341.6 957.471 340.32 957.471 338.848C957.471 337.568 957.823 336.342 958.527 335.168C959.231 333.974 960.372 332.918 961.951 332C963.53 331.083 965.588 330.336 968.127 329.76C970.666 329.163 973.78 328.822 977.471 328.736V326.208C977.471 323.691 976.927 321.792 975.839 320.512C974.751 319.211 973.162 318.56 971.071 318.56C969.663 318.56 968.479 318.742 967.519 319.104C966.58 319.446 965.759 319.84 965.055 320.288C964.372 320.715 963.775 321.11 963.263 321.472C962.772 321.814 962.282 321.984 961.791 321.984C961.407 321.984 961.076 321.888 960.799 321.696C960.522 321.483 960.287 321.227 960.095 320.928L959.071 319.104ZM1003.01 331.104C1004.16 331.104 1005.18 330.944 1006.05 330.624C1006.93 330.304 1007.66 329.856 1008.26 329.28C1008.86 328.704 1009.3 328.022 1009.6 327.232C1009.9 326.422 1010.05 325.536 1010.05 324.576C1010.05 322.592 1009.44 321.014 1008.23 319.84C1007.03 318.667 1005.29 318.08 1003.01 318.08C1000.71 318.08 998.948 318.667 997.732 319.84C996.537 321.014 995.94 322.592 995.94 324.576C995.94 325.536 996.089 326.422 996.388 327.232C996.708 328.022 997.166 328.704 997.764 329.28C998.361 329.856 999.097 330.304 999.972 330.624C1000.85 330.944 1001.86 331.104 1003.01 331.104ZM1013.28 348.704C1013.28 347.915 1013.06 347.275 1012.61 346.784C1012.16 346.294 1011.56 345.91 1010.79 345.632C1010.04 345.355 1009.17 345.163 1008.16 345.056C1007.16 344.928 1006.09 344.832 1004.96 344.768C1003.85 344.704 1002.72 344.64 1001.57 344.576C1000.42 344.512 999.31 344.406 998.244 344.256C997.049 344.811 996.068 345.515 995.3 346.368C994.553 347.2 994.18 348.182 994.18 349.312C994.18 350.038 994.361 350.71 994.724 351.328C995.108 351.968 995.684 352.512 996.452 352.96C997.22 353.43 998.18 353.792 999.332 354.048C1000.5 354.326 1001.88 354.464 1003.46 354.464C1005 354.464 1006.37 354.326 1007.59 354.048C1008.8 353.771 1009.83 353.376 1010.66 352.864C1011.51 352.352 1012.16 351.744 1012.61 351.04C1013.06 350.336 1013.28 349.558 1013.28 348.704ZM1019.08 315.808V317.92C1019.08 318.624 1018.63 319.072 1017.73 319.264L1014.05 319.744C1014.78 321.152 1015.14 322.71 1015.14 324.416C1015.14 325.995 1014.83 327.435 1014.21 328.736C1013.61 330.016 1012.78 331.115 1011.72 332.032C1010.65 332.95 1009.37 333.654 1007.88 334.144C1006.38 334.635 1004.76 334.88 1003.01 334.88C1001.5 334.88 1000.07 334.699 998.724 334.336C998.041 334.763 997.518 335.222 997.156 335.712C996.793 336.182 996.612 336.662 996.612 337.152C996.612 337.92 996.921 338.507 997.54 338.912C998.18 339.296 999.012 339.574 1000.04 339.744C1001.06 339.915 1002.22 340.022 1003.52 340.064C1004.85 340.107 1006.19 340.182 1007.56 340.288C1008.94 340.374 1010.29 340.534 1011.59 340.768C1012.91 341.003 1014.08 341.387 1015.11 341.92C1016.13 342.454 1016.95 343.19 1017.57 344.128C1018.21 345.067 1018.53 346.283 1018.53 347.776C1018.53 349.163 1018.18 350.507 1017.48 351.808C1016.79 353.11 1015.8 354.262 1014.5 355.264C1013.2 356.288 1011.6 357.099 1009.7 357.696C1007.82 358.315 1005.7 358.624 1003.33 358.624C1000.96 358.624 998.894 358.39 997.124 357.92C995.353 357.451 993.881 356.822 992.708 356.032C991.534 355.243 990.649 354.326 990.052 353.28C989.476 352.256 989.188 351.179 989.188 350.048C989.188 348.448 989.689 347.094 990.692 345.984C991.694 344.875 993.07 343.99 994.82 343.328C993.86 342.902 993.092 342.336 992.516 341.632C991.961 340.907 991.684 339.936 991.684 338.72C991.684 338.251 991.769 337.771 991.94 337.28C992.11 336.768 992.366 336.267 992.708 335.776C993.07 335.264 993.508 334.784 994.02 334.336C994.532 333.888 995.129 333.494 995.812 333.152C994.212 332.256 992.964 331.072 992.068 329.6C991.172 328.107 990.724 326.379 990.724 324.416C990.724 322.838 991.022 321.408 991.62 320.128C992.238 318.827 993.092 317.728 994.18 316.832C995.268 315.915 996.558 315.211 998.052 314.72C999.566 314.23 1001.22 313.984 1003.01 313.984C1004.42 313.984 1005.73 314.144 1006.95 314.464C1008.16 314.763 1009.27 315.211 1010.28 315.808H1019.08ZM1046.16 327.2C1046.16 325.878 1045.97 324.672 1045.59 323.584C1045.22 322.475 1044.68 321.526 1043.95 320.736C1043.25 319.926 1042.39 319.307 1041.36 318.88C1040.34 318.432 1039.17 318.208 1037.87 318.208C1035.14 318.208 1032.98 319.008 1031.38 320.608C1029.8 322.187 1028.82 324.384 1028.43 327.2H1046.16ZM1050.77 342.4C1050.07 343.254 1049.22 344 1048.24 344.64C1047.26 345.259 1046.2 345.771 1045.07 346.176C1043.96 346.582 1042.81 346.88 1041.62 347.072C1040.42 347.286 1039.24 347.392 1038.07 347.392C1035.83 347.392 1033.76 347.019 1031.86 346.272C1029.98 345.504 1028.35 344.395 1026.96 342.944C1025.6 341.472 1024.53 339.659 1023.76 337.504C1022.99 335.35 1022.61 332.875 1022.61 330.08C1022.61 327.819 1022.95 325.707 1023.63 323.744C1024.34 321.782 1025.34 320.086 1026.64 318.656C1027.94 317.206 1029.53 316.075 1031.41 315.264C1033.29 314.432 1035.4 314.016 1037.75 314.016C1039.69 314.016 1041.48 314.347 1043.12 315.008C1044.79 315.648 1046.21 316.587 1047.41 317.824C1048.63 319.04 1049.57 320.555 1050.26 322.368C1050.94 324.16 1051.28 326.208 1051.28 328.512C1051.28 329.408 1051.19 330.006 1050.99 330.304C1050.8 330.603 1050.44 330.752 1049.91 330.752H1028.24C1028.31 332.8 1028.58 334.582 1029.07 336.096C1029.59 337.611 1030.29 338.88 1031.19 339.904C1032.08 340.907 1033.15 341.664 1034.39 342.176C1035.62 342.667 1037.01 342.912 1038.55 342.912C1039.97 342.912 1041.2 342.752 1042.23 342.432C1043.27 342.091 1044.17 341.728 1044.91 341.344C1045.66 340.96 1046.28 340.608 1046.77 340.288C1047.28 339.947 1047.72 339.776 1048.08 339.776C1048.55 339.776 1048.91 339.958 1049.17 340.32L1050.77 342.4ZM1063.69 321.024C1064.71 318.806 1065.97 317.078 1067.46 315.84C1068.96 314.582 1070.78 313.952 1072.93 313.952C1073.62 313.952 1074.27 314.027 1074.89 314.176C1075.53 314.326 1076.09 314.56 1076.58 314.88L1076.17 319.136C1076.04 319.67 1075.72 319.936 1075.21 319.936C1074.91 319.936 1074.47 319.872 1073.89 319.744C1073.32 319.616 1072.67 319.552 1071.94 319.552C1070.92 319.552 1070 319.702 1069.19 320C1068.4 320.299 1067.69 320.747 1067.05 321.344C1066.43 321.92 1065.86 322.646 1065.35 323.52C1064.86 324.374 1064.41 325.355 1064.01 326.464V346.944H1058.28V314.528H1061.54C1062.16 314.528 1062.59 314.646 1062.82 314.88C1063.06 315.115 1063.22 315.52 1063.3 316.096L1063.69 321.024Z" fill="#777777"/>
</svg>
